<svg xmlns="http://www.w3.org/2000/svg"><symbol fill="none" id="cart" viewBox="0 0 24 25"><title>cart</title><path d="M3 4.5h.606a2 2 0 0 1 1.989 1.783l.81 7.434A2 2 0 0 0 8.394 15.5h8.652a2 2 0 0 0 1.938-1.506l1.38-5.41a2 2 0 0 0-1.938-2.495H6.6m.025 13.036h.75m-.75.75h.75m10.25-.75h.75m-.75.75h.75M8 19.5a1 1 0 1 1-2 0 1 1 0 0 1 2 0Zm11 0a1 1 0 1 1-2 0 1 1 0 0 1 2 0Z"/></symbol><symbol fill="none" id="logo" viewBox="0 0 252 65"><title>logo</title><path d="M145 24.692C145 11.055 156.055 0 169.692 0H231c11.598 0 21 9.402 21 21s-9.402 21-21 21h-86V24.692Z" fill="#5090B4"/><g clip-path="url(#a)"><path d="M157.453 16.266c0-.521.083-1.047.25-1.578a7.072 7.072 0 0 1 .703-1.5 6.85 6.85 0 0 1 1.016-1.297 5.526 5.526 0 0 1 1.25-.954 3.33 3.33 0 0 1 1.266-.437c.437-.052.906-.078 1.406-.078.562 0 1.114.068 1.656.203a6.437 6.437 0 0 1 1.578.594c.042.031.12.083.234.156.115.073.24.162.376.266.145.104.291.213.437.328.146.104.276.203.391.297.041.041.078.062.109.062.01 0 .036-.02.078-.062.031-.042.068-.104.109-.188l.157-.281.14-.281a3.07 3.07 0 0 1 .11-.188.627.627 0 0 1 .078-.14c.042-.042.068-.063.078-.063 0-.01.021-.016.063-.016.062 0 .109.026.14.079a.363.363 0 0 1 .063.156.66.66 0 0 1 .031.203v.266a.88.88 0 0 1-.016.124c0 .063-.005.136-.015.22-.011.072-.021.14-.032.202a.338.338 0 0 1-.015.125v3.86c0 .083-.037.14-.11.172a.49.49 0 0 1-.187.047c-.115 0-.182-.021-.203-.063a5.61 5.61 0 0 1-.094-.266 3.348 3.348 0 0 1-.234-.828 3.648 3.648 0 0 0-.219-.89 4.565 4.565 0 0 0-.578-1.11 6.915 6.915 0 0 0-.938-1.125 6.005 6.005 0 0 0-1.109-.86c-.386-.228-.755-.343-1.11-.343-.656 0-1.161.047-1.515.14a3.183 3.183 0 0 0-1.344.766 7.815 7.815 0 0 0-.984 1.172 2.308 2.308 0 0 0-.235.485c-.073.187-.135.39-.187.609-.042.208-.078.412-.109.61a4.78 4.78 0 0 0-.032.484c0 .5.104.953.313 1.36.219.405.5.77.843 1.093.344.312.73.594 1.157.844.437.24.875.448 1.312.625.375.156.761.307 1.157.453.406.146.802.297 1.187.453.396.156.771.328 1.125.515.365.188.688.401.969.641.354.281.703.63 1.047 1.047.343.406.651.854.922 1.344.281.479.505.979.671 1.5.167.52.25 1.031.25 1.531 0 .969-.171 1.844-.515 2.625a5.715 5.715 0 0 1-1.406 2 6.4 6.4 0 0 1-2.11 1.266 7.708 7.708 0 0 1-2.625.437c-.552 0-1.088-.026-1.609-.078a8.35 8.35 0 0 1-1.469-.313 5.679 5.679 0 0 1-1.328-.609 5.817 5.817 0 0 1-1.188-1 .256.256 0 0 0-.171-.094.994.994 0 0 0-.157-.015c-.177 0-.302.047-.375.14a1.414 1.414 0 0 0-.187.328 1.455 1.455 0 0 1-.157.313c-.062.094-.171.14-.328.14l.407-4.296c.02-.136.036-.297.047-.485.01-.187.036-.312.078-.375.031-.146.088-.218.172-.218.124 0 .213.078.265.234a8.15 8.15 0 0 1 .266 1.031c.031.167.062.323.093.469.042.146.094.276.157.39.239.428.469.808.687 1.141.229.334.479.64.75.922.282.281.604.537.969.766a7.56 7.56 0 0 0 1.328.64c.323.115.63.183.922.203.292.01.557.016.797.016.292 0 .583-.052.875-.156a8.586 8.586 0 0 0 1.047-.516c.594-.354 1.067-.776 1.422-1.265.354-.5.531-1.125.531-1.875 0-.532-.099-1.026-.297-1.485a4.829 4.829 0 0 0-.781-1.281c-.479-.531-.938-.943-1.375-1.234a7.058 7.058 0 0 0-1.297-.72 12.038 12.038 0 0 0-1.25-.452 11.973 11.973 0 0 1-1.281-.469 7.773 7.773 0 0 1-1.313-.75c-.448-.313-.917-.75-1.406-1.313-1.063-1.25-1.594-2.765-1.594-4.546Zm15.922 16.437c0-.312.198-.484.594-.516l2.187-.187a.93.93 0 0 0 .25-.125.33.33 0 0 0 .156-.281V12.406c0-.312-.031-.52-.093-.625a.55.55 0 0 0-.313-.25 5.268 5.268 0 0 0-.656-.125 17.841 17.841 0 0 0-.672-.11 24.173 24.173 0 0 0-.594-.077 1.266 1.266 0 0 1-.375-.11.19.19 0 0 1-.109-.125 1.38 1.38 0 0 1-.016-.171c0-.084.032-.146.094-.188a.89.89 0 0 1 .25-.094c.094-.02.193-.031.297-.031.104-.01.198-.016.281-.016h.797c.261 0 .485.006.672.016.198.01.38.026.547.047.177.01.344.02.5.031.156.01.323.016.5.016.427 0 .833-.01 1.219-.031a860.013 860.013 0 0 1 2.406-.126c.427-.02.896-.03 1.406-.03.042 0 .099.01.172.03a.86.86 0 0 1 .234.063.59.59 0 0 1 .188.125.193.193 0 0 1 .078.156.265.265 0 0 1-.141.25 5.072 5.072 0 0 0-.234.125 16.854 16.854 0 0 0-1.078.063c-.229.02-.448.047-.656.078-.198.02-.334.047-.407.078-.083 0-.182.016-.297.047a1.14 1.14 0 0 0-.343.125.798.798 0 0 0-.297.234.543.543 0 0 0-.11.344v8.469c0 .25.126.375.376.375h9.093a.419.419 0 0 0 .25-.078.31.31 0 0 0 .125-.266v-8.172c0-.26-.062-.469-.187-.625a1.113 1.113 0 0 0-.453-.36 1.777 1.777 0 0 0-.594-.155 4.103 4.103 0 0 0-.61-.047h-1.406a.641.641 0 0 1-.39-.141.459.459 0 0 1-.172-.344c0-.135.057-.229.172-.281a.869.869 0 0 1 .422-.094h.921c.49 0 .912.005 1.266.016.354.01.682.026.984.047.302.01.594.02.875.031.292.01.62.016.985.016.291 0 .552-.006.781-.016l.75-.031c.26-.021.552-.037.875-.047.323-.01.719-.016 1.187-.016h1.126c.166 0 .281.037.343.11.063.072.094.135.094.187 0 .094-.063.177-.187.25-.126.073-.297.13-.516.172a6.813 6.813 0 0 1-.969.125c-.333.02-.651.068-.953.14a1.758 1.758 0 0 0-.734.329c-.188.156-.282.4-.282.734v17.89c0 .407.068.714.204.923.135.198.317.343.546.437.24.094.516.156.828.188.313.02.652.057 1.016.109.24.052.438.115.594.188.156.072.234.218.234.437 0 .177-.062.302-.187.375a.836.836 0 0 1-.453.11h-.875a29.645 29.645 0 0 1-1.625-.063c-.313-.01-.605-.021-.875-.031a16.08 16.08 0 0 0-.547-.016 46.6 46.6 0 0 0-1.328.016l-1.016.03c-.333.022-.703.037-1.109.048-.396.01-.912.015-1.547.015a.885.885 0 0 1-.453-.109c-.115-.063-.172-.188-.172-.375a.62.62 0 0 1 .078-.266.376.376 0 0 1 .281-.203l2.156-.265c.219-.032.386-.094.5-.188a.972.972 0 0 0 .282-.39 1.87 1.87 0 0 0 .109-.563c.021-.208.031-.432.031-.672v-7.453a.623.623 0 0 0-.156-.406.461.461 0 0 0-.391-.188h-8.921a.564.564 0 0 0-.282.063c-.062.041-.094.12-.094.234v8.375c0 .375.115.656.344.844.24.187.526.323.86.406.333.083.682.136 1.046.156.365.01.678.037.938.078.125.042.198.11.219.204a.892.892 0 0 1 .047.28c0 .22-.073.345-.219.376a1.431 1.431 0 0 1-.422.062c-.427 0-.792-.005-1.094-.015l-.906-.032c-.313 0-.672-.005-1.078-.015-.406-.01-.932-.016-1.578-.016-.25 0-.49.005-.719.016-.229.01-.464.016-.703.016l-.719.03a17.52 17.52 0 0 1-.797.016h-1.14A5.646 5.646 0 0 1 173.5 33c-.083-.031-.125-.13-.125-.297Zm36.25.703c-1.521 0-2.953-.297-4.297-.89-1.333-.604-2.557-1.49-3.672-2.657a10.136 10.136 0 0 1-1.312-1.672 11.276 11.276 0 0 1-1.016-2.109c-.281-.77-.5-1.614-.656-2.531a18.202 18.202 0 0 1-.234-3.016c0-.77.14-1.557.421-2.36.292-.812.688-1.588 1.188-2.327a11.89 11.89 0 0 1 1.765-2.078A11.898 11.898 0 0 1 204 12.109c1.062-.646 2.12-1.088 3.172-1.328 1.062-.25 2.042-.375 2.937-.375.448 0 .917.037 1.407.11a13.1 13.1 0 0 1 1.39.28c.448.116.854.24 1.219.376.375.135.667.265.875.39.5.303 1.01.678 1.531 1.126.521.447 1.011.932 1.469 1.453.458.52.87 1.057 1.234 1.609a8.79 8.79 0 0 1 .875 1.547c.355.812.594 1.625.719 2.437.125.813.188 1.657.188 2.532 0 .937-.099 1.817-.297 2.64a10.102 10.102 0 0 1-.828 2.297 10.755 10.755 0 0 1-1.344 2.031 15.297 15.297 0 0 1-1.781 1.797c-.49.407-.99.76-1.5 1.063a9.394 9.394 0 0 1-1.641.734 9.93 9.93 0 0 1-1.844.438c-.656.093-1.375.14-2.156.14Zm-7.109-11.265c0 .5.026 1.01.078 1.53.052.511.135 1.022.25 1.532.114.5.26.985.437 1.453.188.469.412.907.672 1.313a17.94 17.94 0 0 0 1.109 1.625c.417.52.876.994 1.376 1.422a7.03 7.03 0 0 0 1.671 1.015c.615.25 1.282.375 2 .375.677 0 1.334-.161 1.969-.484a7.48 7.48 0 0 0 1.766-1.297 10.508 10.508 0 0 0 1.453-1.828 11.38 11.38 0 0 0 1.062-2.063 19.1 19.1 0 0 1 .188-.562 12.09 12.09 0 0 0 .578-2.36c.083-.5.125-1.03.125-1.593 0-.5-.042-1.042-.125-1.625a13.165 13.165 0 0 0-.359-1.797 16.509 16.509 0 0 0-.594-1.875 13.523 13.523 0 0 0-.844-1.797 11.33 11.33 0 0 0-.984-1.438 6.994 6.994 0 0 0-1.282-1.265 5.777 5.777 0 0 0-1.562-.89 5.005 5.005 0 0 0-1.875-.345c-.646 0-1.26.136-1.844.407-.583.27-1.114.61-1.593 1.015-.48.396-.902.823-1.266 1.282a10.8 10.8 0 0 0-.86 1.234c-.166.292-.343.656-.531 1.094a13.4 13.4 0 0 0-.5 1.531 19.297 19.297 0 0 0-.375 1.984 18.91 18.91 0 0 0-.14 2.407Zm20.64 10.64c0-.323.229-.484.688-.484.323 0 .656-.026 1-.078.344-.063.666-.136.968-.219a1.39 1.39 0 0 0 .438-.188c.125-.093.188-.255.188-.484V12.125a.828.828 0 0 0-.36-.375 2.209 2.209 0 0 0-.594-.25 6.98 6.98 0 0 0-.734-.156 22.23 22.23 0 0 0-.734-.11 25.01 25.01 0 0 1-.641-.093 1.649 1.649 0 0 1-.422-.141c-.073-.02-.109-.094-.109-.219 0-.094.036-.146.109-.156a.968.968 0 0 1 .188-.063c.083-.02.244-.03.484-.03.083 0 .276.01.578.03.313.01.651.032 1.016.063.364.02.708.042 1.031.063.333.01.557.015.672.015h2.109c.042 0 .141-.005.297-.015a8.56 8.56 0 0 1 .531-.016c.188-.01.355-.021.5-.031a8.34 8.34 0 0 1 .266-.016 9.149 9.149 0 0 1 1.063-.094c.354-.01.713-.015 1.078-.015.635 0 1.286.026 1.953.078a6.341 6.341 0 0 1 1.906.406 6.22 6.22 0 0 1 1.641.922c.489.375.906.807 1.25 1.297.354.479.625 1.005.812 1.578.198.573.297 1.161.297 1.765 0 1.063-.193 1.985-.578 2.766-.375.771-.985 1.464-1.828 2.078-.521.375-1.157.693-1.907.953-.739.25-1.583.375-2.531.375-.406 0-.807-.005-1.203-.015a25.784 25.784 0 0 1-1.219-.094.7.7 0 0 1-.187-.031 1.047 1.047 0 0 0-.281-.032h-.297c-.094 0-.146.021-.156.063a.887.887 0 0 0-.422.281c-.115.125-.172.344-.172.657v3c0 .708-.032 1.479-.094 2.312a38.44 38.44 0 0 0-.078 2.39c0 .22.047.376.14.47.094.083.23.145.407.187.469.114.911.198 1.328.25.417.042.849.11 1.297.203.156.052.25.11.281.172a.29.29 0 0 1 .063.187c0 .063-.032.115-.094.157-.052.03-.12.062-.203.093a1.48 1.48 0 0 1-.235.047 1.34 1.34 0 0 1-.187.016c-.125 0-.281-.005-.469-.016a9.9 9.9 0 0 1-.547-.015 8.56 8.56 0 0 1-.515-.016h-5.094c-.396 0-.776.005-1.141.016-.354.02-.614.03-.781.03h-.578c-.125-.01-.188-.098-.188-.265Zm6.985-10.75c.187.052.369.1.547.14.187.032.416.048.687.048.469 0 .943-.052 1.422-.157a5.188 5.188 0 0 0 1.312-.5 5.3 5.3 0 0 0 1.094-.78c.365-.324.688-.699.969-1.126.281-.437.505-.922.672-1.453a5.65 5.65 0 0 0 .265-1.765c0-.667-.073-1.256-.218-1.766a4.202 4.202 0 0 0-1.735-2.406 7.8 7.8 0 0 0-1.5-.813 3.944 3.944 0 0 0-.984-.281 5.668 5.668 0 0 0-1.047-.094c-.333 0-.641.016-.922.047-.271.02-.557.088-.859.203v9.938c0 .166.01.323.031.468.031.146.12.245.266.297Z" fill="#fff"/></g><path d="M8.666 18.809c0-.22.102-.356.305-.407.186-.05.347-.076.482-.076.322 0 .745.009 1.27.026.541.017 1.108.033 1.7.05.593 0 1.186.009 1.778.026a55.547 55.547 0 0 0 3.428 0 48 48 0 0 0 2.006-.102 27.14 27.14 0 0 0 2.158-.178c.694-.084 1.38-.127 2.057-.127.067 0 .169.009.304.026.136 0 .271.017.407.05.135.018.245.06.33.128.101.067.152.16.152.279 0 .237-.135.415-.406.533-.271.102-.61.186-1.016.254s-.846.144-1.32.229a5.404 5.404 0 0 0-1.32.355c-.407.152-.745.38-1.016.686-.271.304-.406.719-.406 1.244 0 .389.008.812.025 1.27.034.44.127.837.28 1.193l7.54 19.144c.237.559.415.838.534.838.186 0 .406-.245.66-.736.05-.119.169-.44.355-.965.203-.542.449-1.21.736-2.006.305-.813.635-1.718.99-2.717a213.35 213.35 0 0 0 1.118-3.123 241.706 241.706 0 0 0 2.158-6.17c.322-.93.601-1.743.838-2.437.237-.711.398-1.236.482-1.575.085-.423.127-.829.127-1.218a4.28 4.28 0 0 0-.076-.838 1.854 1.854 0 0 0-.228-.711c-.22-.39-.55-.728-.99-1.016a8.822 8.822 0 0 0-1.194-.736 4.764 4.764 0 0 0-1.016-.33 15.891 15.891 0 0 1-1.066-.33 4.102 4.102 0 0 1-.863-.406c-.237-.153-.356-.356-.356-.61 0-.22.076-.347.229-.38.152-.035.296-.052.431-.052a27.3 27.3 0 0 1 1.93.077c.711.034 1.456.076 2.234.127l2.387.152c.813.034 1.6.05 2.361.05.424 0 .805-.016 1.143-.05.356-.05.686-.102.99-.152.305-.051.601-.093.889-.127.288-.051.6-.076.94-.076.101 0 .211.008.33.025.118 0 .237.017.355.05a.632.632 0 0 1 .28.153c.084.068.126.17.126.305 0 .27-.101.431-.304.482a20.27 20.27 0 0 0-.965.28c-.322.101-.627.203-.914.304a7.48 7.48 0 0 0-.711.305 2.162 2.162 0 0 0-.407.203c-.186.085-.448.262-.787.533-.321.271-.626.61-.914 1.016a8.78 8.78 0 0 0-.533.863c-.17.339-.39.804-.66 1.396-.27.576-.6 1.32-.99 2.235a623.71 623.71 0 0 1-1.422 3.453l-9.319 22.877c-.118.27-.228.5-.33.685-.101.187-.228.28-.38.28-.187 0-.339-.102-.457-.305a5.86 5.86 0 0 1-.381-.838L14.53 25.004c-.169-.44-.355-.906-.558-1.397-.204-.507-.44-.99-.711-1.447a6.538 6.538 0 0 0-.864-1.219 2.99 2.99 0 0 0-1.066-.812 8.083 8.083 0 0 1-.66-.127 6.699 6.699 0 0 1-.889-.28 4.903 4.903 0 0 1-.787-.406c-.22-.152-.33-.321-.33-.507Zm50.426 20.617c.372 0 .558-.161.558-.483 0-.152-.008-.27-.025-.355a317.53 317.53 0 0 1-1.066-3.504c-.237-.796-.5-1.642-.787-2.54-.271-.913-.55-1.827-.838-2.741-.271-.914-.542-1.794-.813-2.64a128.02 128.02 0 0 1-.71-2.337 2.38 2.38 0 0 1-.153-.178c-.051-.084-.136-.127-.254-.127-.152 0-.27.144-.356.432-.152.423-.364 1.024-.634 1.803a313.527 313.527 0 0 1-1.879 5.535c-.339 1.016-.66 1.964-.965 2.844-.305.863-.567 1.616-.787 2.26-.22.626-.364 1.04-.432 1.244a.36.36 0 0 0-.05.203c0 .39.262.584.786.584h8.405ZM38.17 53.34c0-.288.152-.457.457-.508l1.32-.229c1.1-.236 2.015-.719 2.742-1.447a10.268 10.268 0 0 0 1.829-2.488c.49-.948.897-1.93 1.218-2.945.339-1.016.66-1.93.965-2.742l6.5-17.8c.152-.44.288-.744.406-.913l.33-.457c.085-.136.153-.288.204-.457.05-.17.076-.466.076-.89a1.62 1.62 0 0 0-.076-.507 5.09 5.09 0 0 0-.178-.457c-.05-.17-.102-.347-.153-.533a3.08 3.08 0 0 1-.076-.736c.44-.051.855-.119 1.244-.204.407-.101.78-.27 1.118-.508a1.84 1.84 0 0 0 .482-.533c.136-.237.28-.465.432-.685.152-.22.33-.406.533-.559.203-.17.474-.254.813-.254.033 0 .067.009.101.026s.068.067.102.152c.033.085.135.415.304.99.187.576.423 1.346.711 2.31.305.949.643 2.049 1.016 3.302.39 1.252.795 2.59 1.219 4.011.44 1.405.888 2.87 1.345 4.393.474 1.523.94 3.03 1.397 4.52.457 1.472.888 2.902 1.295 4.29.423 1.371.812 2.624 1.168 3.758.355 1.134.66 2.125.914 2.97l.558 1.83c.186.558.483 1.049.889 1.472.406.423.855.71 1.346.863.49.17.93.262 1.32.28.406.016.745.033 1.016.05.287.017.507.076.66.178.152.101.228.313.228.635a.345.345 0 0 1-.101.254.89.89 0 0 1-.254.126c-.102.034-.212.06-.33.077a1.07 1.07 0 0 0-.254.025h-2.717a7.13 7.13 0 0 0-.71-.025 24.357 24.357 0 0 0-1.27-.026 72.541 72.541 0 0 0-2.159-.025c-.948 0-1.879.017-2.793.05-.897.018-1.81.043-2.742.077H59.32c-.135 0-.287-.009-.457-.026a2.27 2.27 0 0 1-.482-.05.883.883 0 0 1-.381-.178.437.437 0 0 1-.152-.356c0-.135.067-.245.203-.33a1.8 1.8 0 0 1 .482-.203c.186-.05.381-.084.584-.101.203-.034.373-.06.508-.077a43.475 43.475 0 0 0 1.676-.279 67.693 67.693 0 0 1 1.6-.33c.389-.118.583-.33.583-.635v-.152a.504.504 0 0 0-.05-.229l-2.768-9.09c-.034-.135-.127-.287-.28-.456a.625.625 0 0 0-.507-.254H49.57c-.237 0-.398.042-.482.127-.085.067-.16.143-.229.228l-1.32 3.555a8.81 8.81 0 0 0-.457 1.574 7.253 7.253 0 0 0-.127 1.32c0 .508.05 1.067.152 1.676.085.61.288 1.084.61 1.422.321.339.694.593 1.117.762.44.169.906.288 1.396.355.491.051.94.102 1.346.153.406.05.736.127.99.228.271.085.407.254.407.508a.939.939 0 0 1-.153.482c-.084.17-.296.271-.635.305h-1.091l-2.92-.102a53.758 53.758 0 0 0-2.92-.076c-1.117 0-2.133.034-3.047.102-.897.05-1.803.076-2.717.076h-.33c-.66 0-.99-.22-.99-.66Zm42.555-1.447v-17.8c0-.524.017-1.243.05-2.158.034-.93.077-1.93.127-2.995.051-1.067.093-2.15.127-3.25s.051-2.091.051-2.971c0-1.185-.05-2.048-.152-2.59a1.067 1.067 0 0 0-.406-.762c-.22-.203-.5-.355-.838-.457a4.205 4.205 0 0 0-1.118-.228 31.762 31.762 0 0 0-1.193-.127 29.86 29.86 0 0 0-1.066-.127c-.322-.051-.576-.127-.762-.229-.22-.118-.33-.262-.33-.431 0-.136.008-.229.025-.28a.384.384 0 0 1 .153-.127 2.59 2.59 0 0 1 .584-.127c.203-.034.38-.05.533-.05h.965c.761 0 1.413.017 1.955.05.558.017 1.075.051 1.548.102l1.397.102c.457.016.973.025 1.549.025.626 0 1.202-.034 1.726-.102.542-.067 1.05-.144 1.524-.228.49-.085.956-.161 1.396-.229a9.345 9.345 0 0 1 1.371-.101h.915c.186 0 .389.017.609.05.22.034.33.161.33.381 0 .288-.195.491-.584.61-.288.084-.626.16-1.016.228a5.66 5.66 0 0 0-1.27.356c-.44.101-.803.211-1.091.33-.27.118-.474.211-.61.28-.186.118-.355.27-.507.456-.136.186-.203.457-.203.813v30.62c0 .373.101.66.304.864.204.203.457.356.762.457.322.102.66.16 1.016.178.372.017.72.025 1.04.025.373 0 .898-.017 1.575-.05a52.551 52.551 0 0 0 2.133-.153 39.767 39.767 0 0 0 2.158-.254c.71-.118 1.286-.254 1.727-.406a28.102 28.102 0 0 0 1.624-.61c.508-.22.931-.49 1.27-.812.051-.034.135-.101.254-.203.118-.119.245-.254.381-.406a6.57 6.57 0 0 0 .431-.534c.136-.186.254-.372.356-.558.101-.136.186-.254.254-.356a4.11 4.11 0 0 1 .228-.254c.068-.084.153-.228.254-.431.102-.203.212-.432.33-.686l.407-.761c.135-.271.27-.525.406-.762a3.98 3.98 0 0 1 .33-.381.677.677 0 0 1 .457-.152c.186 0 .288.11.305.33.033.203.05.406.05.61 0 .405-.05.82-.152 1.243-.085.407-.186.813-.305 1.219-.118.406-.245.813-.38 1.219a7.988 7.988 0 0 0-.305 1.219 9.128 9.128 0 0 0-.178 1.218 7.829 7.829 0 0 1-.127 1.143c-.051.338-.161.618-.33.838-.152.22-.406.33-.762.33H84.66c-1.05 0-1.93.017-2.64.05-.694.051-1.33.102-1.905.153-.575.068-1.15.118-1.726.152a22.19 22.19 0 0 1-1.98.076c-.289 0-.534-.025-.737-.076-.186-.05-.339-.186-.457-.406a.786.786 0 0 0-.05-.152c-.018-.034-.026-.144-.026-.33 0-.22.093-.373.279-.458.203-.101.355-.169.457-.203.186-.033.466-.05.838-.05a15.746 15.746 0 0 0 1.6-.153c.236-.034.49-.084.761-.152a8.33 8.33 0 0 0 .864-.254c.287-.101.55-.22.787-.355Zm44.509 2.767c-2.471 0-4.798-.482-6.982-1.447-2.167-.982-4.156-2.42-5.967-4.316a16.523 16.523 0 0 1-2.133-2.717 18.38 18.38 0 0 1-1.65-3.428 23.452 23.452 0 0 1-1.066-4.113c-.254-1.507-.381-3.14-.381-4.9 0-1.253.228-2.531.685-3.835a16.963 16.963 0 0 1 1.93-3.783 19.31 19.31 0 0 1 2.869-3.377 19.247 19.247 0 0 1 3.555-2.691c1.726-1.05 3.444-1.77 5.154-2.159 1.727-.406 3.318-.609 4.773-.609.728 0 1.49.06 2.286.178.795.118 1.548.27 2.259.457.728.186 1.388.39 1.981.61.609.22 1.083.43 1.422.634.812.49 1.642 1.1 2.488 1.828a24.241 24.241 0 0 1 2.387 2.361 23.924 23.924 0 0 1 2.006 2.616c.609.88 1.083 1.718 1.421 2.513a15.95 15.95 0 0 1 1.168 3.961 26.92 26.92 0 0 1 .305 4.114c0 1.523-.161 2.953-.482 4.29a16.374 16.374 0 0 1-1.346 3.733 17.375 17.375 0 0 1-2.184 3.3 24.755 24.755 0 0 1-2.894 2.92 18.874 18.874 0 0 1-2.438 1.727c-.829.474-1.718.872-2.666 1.194-.931.321-1.929.558-2.996.71a24.844 24.844 0 0 1-3.504.23Zm-11.552-18.306c0 .812.042 1.641.127 2.488.084.83.22 1.659.406 2.488.186.813.423 1.6.711 2.361.304.762.668 1.473 1.092 2.133a29.023 29.023 0 0 0 1.802 2.64 16.948 16.948 0 0 0 2.235 2.311 11.433 11.433 0 0 0 2.716 1.65c.999.407 2.083.61 3.25.61a6.979 6.979 0 0 0 3.2-.787 12.158 12.158 0 0 0 2.869-2.107c.88-.88 1.667-1.87 2.361-2.971a18.52 18.52 0 0 0 1.727-3.352c.051-.169.152-.474.304-.914.17-.457.339-1.007.508-1.65.17-.643.313-1.371.432-2.184a15.8 15.8 0 0 0 .203-2.59c0-.812-.068-1.692-.203-2.64a21.268 21.268 0 0 0-.584-2.92 26.484 26.484 0 0 0-.965-3.047 21.835 21.835 0 0 0-1.371-2.92 18.41 18.41 0 0 0-1.6-2.336 11.379 11.379 0 0 0-2.082-2.056 9.401 9.401 0 0 0-2.539-1.448c-.931-.372-1.946-.558-3.047-.558-1.049 0-2.048.22-2.996.66-.948.44-1.811.99-2.59 1.65a14.049 14.049 0 0 0-2.056 2.082 17.594 17.594 0 0 0-1.397 2.006 17.723 17.723 0 0 0-.863 1.777c-.288.711-.559 1.54-.812 2.489a31.413 31.413 0 0 0-.61 3.224 30.863 30.863 0 0 0-.228 3.91Z" fill="#070414"/><defs><clipPath id="a"><path fill="#fff" transform="translate(155 10)" d="M0 0h87v26H0z"/></clipPath></defs></symbol><symbol fill="none" id="telegram" viewBox="0 0 24 24"><title>telegram</title><path d="M23.932 4.494 20.31 20.07c-.273 1.099-.986 1.372-1.999.855l-5.518-3.708-2.663 2.335c-.294.268-.54.493-1.109.493l.397-5.125 10.227-8.427c.445-.361-.096-.561-.69-.2L6.31 13.552.867 11.998c-1.184-.337-1.205-1.08.246-1.597l21.292-7.48c.985-.337 1.848.2 1.527 1.573Z" fill="#20A0E1"/></symbol></svg>