<svg width="24" height="24" viewBox="0 0 24 24" fill="none" xmlns="http://www.w3.org/2000/svg">
<g id="icon / call out">
<path id="Icon" d="M19 5L14 10M20 9L20 4.88388C20 4.39573 19.6043 4 19.1161 4H15M11.581 13.419C10.4831 12.3211 9.6162 11.0797 8.98026 9.75516C8.92556 9.64123 8.89821 9.58426 8.8772 9.51218C8.80252 9.25601 8.85616 8.94146 9.0115 8.72452C9.05521 8.66347 9.10744 8.61125 9.21189 8.5068C9.53133 8.18736 9.69105 8.02764 9.79547 7.86703C10.1893 7.26134 10.1893 6.4805 9.79547 5.87481C9.69104 5.7142 9.53133 5.55448 9.21189 5.23504L9.03383 5.05699C8.54825 4.5714 8.30546 4.32861 8.0447 4.19672C7.52611 3.93443 6.91369 3.93443 6.3951 4.19672C6.13434 4.32861 5.89155 4.57141 5.40597 5.05699L5.26193 5.20102C4.77801 5.68494 4.53605 5.92691 4.35126 6.25587C4.1462 6.6209 3.99876 7.18785 4.00001 7.60653C4.00113 7.98385 4.07432 8.24172 4.22071 8.75746C5.00738 11.5291 6.49168 14.1445 8.6736 16.3264C10.8555 18.5083 13.4709 19.9926 16.2425 20.7793C16.7583 20.9257 17.0162 20.9989 17.3935 21C17.8121 21.0012 18.3791 20.8538 18.7441 20.6487C19.0731 20.4639 19.3151 20.222 19.799 19.7381L19.943 19.594C20.4286 19.1084 20.6714 18.8657 20.8033 18.6049C21.0656 18.0863 21.0656 17.4739 20.8033 16.9553C20.6714 16.6945 20.4286 16.4518 19.943 15.9662L19.765 15.7881C19.4455 15.4687 19.2858 15.309 19.1252 15.2045C18.5195 14.8107 17.7387 14.8107 17.133 15.2045C16.9724 15.309 16.8126 15.4687 16.4932 15.7881C16.3888 15.8926 16.3365 15.9448 16.2755 15.9885C16.0585 16.1438 15.744 16.1975 15.4878 16.1228C15.4157 16.1018 15.3588 16.0744 15.2448 16.0197C13.9203 15.3838 12.6789 14.5169 11.581 13.419Z" stroke-width="2" stroke-linecap="round"/>
</g>
</svg>
