<svg width="24" height="25" viewBox="0 0 24 25" fill="none" xmlns="http://www.w3.org/2000/svg">
<path d="M3 4.5H3.60632C4.62694 4.5 5.48384 5.2685 5.59452 6.28311L6.40548 13.7169C6.51616 14.7315 7.37306 15.5 8.39368 15.5H17.046C17.9602 15.5 18.7581 14.8801 18.984 13.9942L20.3639 8.58311C20.6864 7.31854 19.731 6.08889 18.426 6.08889H6.6M6.62476 19.1249H7.37476M6.62476 19.8749H7.37476M17.6248 19.1249H18.3748M17.6248 19.8749H18.3748M8 19.5C8 20.0523 7.55229 20.5 7 20.5C6.44772 20.5 6 20.0523 6 19.5C6 18.9477 6.44772 18.5 7 18.5C7.55229 18.5 8 18.9477 8 19.5ZM19 19.5C19 20.0523 18.5523 20.5 18 20.5C17.4477 20.5 17 20.0523 17 19.5C17 18.9477 17.4477 18.5 18 18.5C18.5523 18.5 19 18.9477 19 19.5Z"/>
</svg>
