<svg width="252" height="65" viewBox="0 0 252 65" fill="none" xmlns="http://www.w3.org/2000/svg">
<path d="M145 24.6923C145 11.0551 156.055 0 169.692 0H231C242.598 0 252 9.40202 252 21V21C252 32.598 242.598 42 231 42H145V24.6923Z" fill="#5090B4"/>
<g clip-path="url(#clip0_1422_902)">
<path d="M157.453 16.2656C157.453 15.7448 157.536 15.2188 157.703 14.6875C157.88 14.1562 158.115 13.6562 158.406 13.1875C158.698 12.7083 159.036 12.276 159.422 11.8906C159.818 11.4948 160.234 11.1771 160.672 10.9375C161.089 10.6979 161.51 10.5521 161.938 10.5C162.375 10.4479 162.844 10.4219 163.344 10.4219C163.906 10.4219 164.458 10.4896 165 10.625C165.542 10.75 166.068 10.9479 166.578 11.2188C166.62 11.25 166.698 11.3021 166.812 11.375C166.927 11.4479 167.052 11.5365 167.188 11.6406C167.333 11.7448 167.479 11.8542 167.625 11.9688C167.771 12.0729 167.901 12.1719 168.016 12.2656C168.057 12.3073 168.094 12.3281 168.125 12.3281C168.135 12.3281 168.161 12.3073 168.203 12.2656C168.234 12.224 168.271 12.1615 168.312 12.0781C168.365 11.9844 168.417 11.8906 168.469 11.7969C168.521 11.6927 168.568 11.599 168.609 11.5156C168.661 11.4219 168.698 11.3594 168.719 11.3281C168.74 11.276 168.766 11.2292 168.797 11.1875C168.839 11.1458 168.865 11.125 168.875 11.125C168.875 11.1146 168.896 11.1094 168.938 11.1094C169 11.1094 169.047 11.1354 169.078 11.1875C169.109 11.2292 169.13 11.2812 169.141 11.3438C169.161 11.4062 169.172 11.474 169.172 11.5469C169.172 11.6094 169.172 11.6615 169.172 11.7031V11.8125C169.172 11.8333 169.167 11.875 169.156 11.9375C169.156 12 169.151 12.0729 169.141 12.1562C169.13 12.2292 169.12 12.2969 169.109 12.3594C169.109 12.4219 169.104 12.4635 169.094 12.4844V16.3438C169.094 16.4271 169.057 16.4844 168.984 16.5156C168.911 16.5469 168.849 16.5625 168.797 16.5625C168.682 16.5625 168.615 16.5417 168.594 16.5C168.573 16.4479 168.542 16.3594 168.5 16.2344C168.385 15.9635 168.307 15.6875 168.266 15.4062C168.234 15.1146 168.161 14.8177 168.047 14.5156C167.932 14.1719 167.74 13.8021 167.469 13.4062C167.198 13 166.885 12.625 166.531 12.2812C166.177 11.9375 165.807 11.651 165.422 11.4219C165.036 11.1927 164.667 11.0781 164.312 11.0781C163.656 11.0781 163.151 11.125 162.797 11.2188C162.266 11.375 161.818 11.6302 161.453 11.9844C161.099 12.3281 160.771 12.7188 160.469 13.1562C160.385 13.2812 160.307 13.4427 160.234 13.6406C160.161 13.8281 160.099 14.0312 160.047 14.25C160.005 14.4583 159.969 14.6615 159.938 14.8594C159.917 15.0573 159.906 15.2188 159.906 15.3438C159.906 15.8438 160.01 16.2969 160.219 16.7031C160.438 17.1094 160.719 17.474 161.062 17.7969C161.406 18.1094 161.792 18.3906 162.219 18.6406C162.656 18.8802 163.094 19.0885 163.531 19.2656C163.906 19.4219 164.292 19.5729 164.688 19.7188C165.094 19.8646 165.49 20.0156 165.875 20.1719C166.271 20.3281 166.646 20.5 167 20.6875C167.365 20.875 167.688 21.0885 167.969 21.3281C168.323 21.6094 168.672 21.9583 169.016 22.375C169.359 22.7812 169.667 23.2292 169.938 23.7188C170.219 24.1979 170.443 24.6979 170.609 25.2188C170.776 25.7396 170.859 26.25 170.859 26.75C170.859 27.7188 170.688 28.5938 170.344 29.375C170.01 30.1562 169.542 30.8229 168.938 31.375C168.344 31.9167 167.641 32.3385 166.828 32.6406C166.016 32.9323 165.141 33.0781 164.203 33.0781C163.651 33.0781 163.115 33.0521 162.594 33C162.083 32.9375 161.594 32.8333 161.125 32.6875C160.656 32.5417 160.214 32.3385 159.797 32.0781C159.38 31.8177 158.984 31.4844 158.609 31.0781C158.568 31.026 158.51 30.9948 158.438 30.9844C158.375 30.974 158.323 30.9688 158.281 30.9688C158.104 30.9688 157.979 31.0156 157.906 31.1094C157.833 31.2031 157.771 31.3125 157.719 31.4375C157.677 31.5521 157.625 31.6562 157.562 31.75C157.5 31.8438 157.391 31.8906 157.234 31.8906L157.641 27.5938C157.661 27.4583 157.677 27.2969 157.688 27.1094C157.698 26.9219 157.724 26.7969 157.766 26.7344C157.797 26.5885 157.854 26.5156 157.938 26.5156C158.062 26.5156 158.151 26.5938 158.203 26.75C158.266 26.9271 158.318 27.1042 158.359 27.2812C158.401 27.4479 158.438 27.6146 158.469 27.7812C158.5 27.9479 158.531 28.1042 158.562 28.25C158.604 28.3958 158.656 28.526 158.719 28.6406C158.958 29.0677 159.188 29.4479 159.406 29.7812C159.635 30.1146 159.885 30.4219 160.156 30.7031C160.438 30.9844 160.76 31.2396 161.125 31.4688C161.49 31.6979 161.932 31.9115 162.453 32.1094C162.776 32.224 163.083 32.2917 163.375 32.3125C163.667 32.3229 163.932 32.3281 164.172 32.3281C164.464 32.3281 164.755 32.276 165.047 32.1719C165.339 32.0573 165.688 31.8854 166.094 31.6562C166.688 31.3021 167.161 30.8802 167.516 30.3906C167.87 29.8906 168.047 29.2656 168.047 28.5156C168.047 27.9844 167.948 27.4896 167.75 27.0312C167.562 26.5729 167.302 26.1458 166.969 25.75C166.49 25.2188 166.031 24.8073 165.594 24.5156C165.156 24.2135 164.724 23.974 164.297 23.7969C163.88 23.6198 163.464 23.4688 163.047 23.3438C162.63 23.2188 162.203 23.0625 161.766 22.875C161.339 22.6875 160.901 22.4375 160.453 22.125C160.005 21.8125 159.536 21.375 159.047 20.8125C157.984 19.5625 157.453 18.0469 157.453 16.2656ZM173.375 32.7031C173.375 32.3906 173.573 32.2188 173.969 32.1875L176.156 32C176.229 31.9792 176.312 31.9375 176.406 31.875C176.51 31.8021 176.562 31.7083 176.562 31.5938V12.4062C176.562 12.0938 176.531 11.8854 176.469 11.7812C176.406 11.6667 176.302 11.5833 176.156 11.5312C175.958 11.4792 175.74 11.4375 175.5 11.4062C175.271 11.3646 175.047 11.3281 174.828 11.2969C174.609 11.2656 174.411 11.2396 174.234 11.2188C174.057 11.1875 173.932 11.151 173.859 11.1094C173.807 11.0885 173.771 11.0469 173.75 10.9844C173.74 10.9115 173.734 10.8542 173.734 10.8125C173.734 10.7292 173.766 10.6667 173.828 10.625C173.901 10.5833 173.984 10.5521 174.078 10.5312C174.172 10.5104 174.271 10.5 174.375 10.5C174.479 10.4896 174.573 10.4844 174.656 10.4844H175.453C175.714 10.4844 175.938 10.4896 176.125 10.5C176.323 10.5104 176.505 10.526 176.672 10.5469C176.849 10.5573 177.016 10.5677 177.172 10.5781C177.328 10.5885 177.495 10.5938 177.672 10.5938C178.099 10.5938 178.505 10.5833 178.891 10.5625C179.276 10.5417 179.667 10.5208 180.062 10.5C180.458 10.4792 180.87 10.4583 181.297 10.4375C181.724 10.4167 182.193 10.4062 182.703 10.4062C182.745 10.4062 182.802 10.4167 182.875 10.4375C182.958 10.4479 183.036 10.4688 183.109 10.5C183.182 10.5312 183.245 10.5729 183.297 10.625C183.349 10.6667 183.375 10.7188 183.375 10.7812C183.375 10.8958 183.328 10.9792 183.234 11.0312C183.151 11.0729 183.073 11.1146 183 11.1562C182.917 11.1562 182.771 11.1615 182.562 11.1719C182.365 11.1823 182.151 11.1979 181.922 11.2188C181.693 11.2396 181.474 11.2656 181.266 11.2969C181.068 11.3177 180.932 11.3438 180.859 11.375C180.776 11.375 180.677 11.3906 180.562 11.4219C180.448 11.4427 180.333 11.4844 180.219 11.5469C180.104 11.599 180.005 11.6771 179.922 11.7812C179.849 11.875 179.812 11.9896 179.812 12.125V20.5938C179.812 20.8438 179.938 20.9688 180.188 20.9688H189.281C189.375 20.9688 189.458 20.9427 189.531 20.8906C189.615 20.8281 189.656 20.7396 189.656 20.625V12.4531C189.656 12.1927 189.594 11.9844 189.469 11.8281C189.354 11.6719 189.203 11.5521 189.016 11.4688C188.839 11.3854 188.641 11.3333 188.422 11.3125C188.214 11.2812 188.01 11.2656 187.812 11.2656H186.406C186.271 11.2656 186.141 11.2188 186.016 11.125C185.901 11.0208 185.844 10.9062 185.844 10.7812C185.844 10.6458 185.901 10.5521 186.016 10.5C186.13 10.4375 186.271 10.4062 186.438 10.4062H187.359C187.849 10.4062 188.271 10.4115 188.625 10.4219C188.979 10.4323 189.307 10.4479 189.609 10.4688C189.911 10.4792 190.203 10.4896 190.484 10.5C190.776 10.5104 191.104 10.5156 191.469 10.5156C191.76 10.5156 192.021 10.5104 192.25 10.5C192.49 10.4896 192.74 10.4792 193 10.4688C193.26 10.4479 193.552 10.4323 193.875 10.4219C194.198 10.4115 194.594 10.4062 195.062 10.4062H196.188C196.354 10.4062 196.469 10.4427 196.531 10.5156C196.594 10.5885 196.625 10.651 196.625 10.7031C196.625 10.7969 196.562 10.8802 196.438 10.9531C196.312 11.026 196.141 11.0833 195.922 11.125C195.62 11.1875 195.297 11.2292 194.953 11.25C194.62 11.2708 194.302 11.3177 194 11.3906C193.708 11.4531 193.464 11.5625 193.266 11.7188C193.078 11.875 192.984 12.1198 192.984 12.4531V30.3438C192.984 30.75 193.052 31.0573 193.188 31.2656C193.323 31.4635 193.505 31.6094 193.734 31.7031C193.974 31.7969 194.25 31.8594 194.562 31.8906C194.875 31.9115 195.214 31.9479 195.578 32C195.818 32.0521 196.016 32.1146 196.172 32.1875C196.328 32.2604 196.406 32.4062 196.406 32.625C196.406 32.8021 196.344 32.9271 196.219 33C196.104 33.0729 195.953 33.1094 195.766 33.1094H194.891C194.714 33.1094 194.474 33.1042 194.172 33.0938C193.88 33.0833 193.578 33.0677 193.266 33.0469C192.953 33.0365 192.661 33.026 192.391 33.0156C192.13 33.0052 191.948 33 191.844 33C191.312 33 190.87 33.0052 190.516 33.0156C190.172 33.026 189.833 33.0365 189.5 33.0469C189.167 33.0677 188.797 33.0833 188.391 33.0938C187.995 33.1042 187.479 33.1094 186.844 33.1094C186.667 33.1094 186.516 33.0729 186.391 33C186.276 32.9375 186.219 32.8125 186.219 32.625C186.219 32.5521 186.245 32.4635 186.297 32.3594C186.359 32.2448 186.453 32.1771 186.578 32.1562L188.734 31.8906C188.953 31.8594 189.12 31.7969 189.234 31.7031C189.359 31.599 189.453 31.4688 189.516 31.3125C189.578 31.1458 189.615 30.9583 189.625 30.75C189.646 30.5417 189.656 30.3177 189.656 30.0781V22.625C189.656 22.4792 189.604 22.3438 189.5 22.2188C189.406 22.0938 189.276 22.0312 189.109 22.0312H180.188C180.073 22.0312 179.979 22.0521 179.906 22.0938C179.844 22.1354 179.812 22.2135 179.812 22.3281V30.7031C179.812 31.0781 179.927 31.3594 180.156 31.5469C180.396 31.7344 180.682 31.8698 181.016 31.9531C181.349 32.0365 181.698 32.0885 182.062 32.1094C182.427 32.1198 182.74 32.1458 183 32.1875C183.125 32.2292 183.198 32.2969 183.219 32.3906C183.25 32.4844 183.266 32.5781 183.266 32.6719C183.266 32.8906 183.193 33.0156 183.047 33.0469C182.911 33.0885 182.771 33.1094 182.625 33.1094C182.198 33.1094 181.833 33.1042 181.531 33.0938C181.24 33.0833 180.938 33.0729 180.625 33.0625C180.312 33.0625 179.953 33.0573 179.547 33.0469C179.141 33.0365 178.615 33.0312 177.969 33.0312C177.719 33.0312 177.479 33.0365 177.25 33.0469C177.021 33.0573 176.786 33.0625 176.547 33.0625C176.318 33.0729 176.078 33.0833 175.828 33.0938C175.589 33.1042 175.323 33.1094 175.031 33.1094H173.891C173.724 33.0677 173.594 33.0312 173.5 33C173.417 32.9688 173.375 32.8698 173.375 32.7031ZM209.625 33.4062C208.104 33.4062 206.672 33.1094 205.328 32.5156C203.995 31.9115 202.771 31.026 201.656 29.8594C201.177 29.3698 200.74 28.8125 200.344 28.1875C199.948 27.5521 199.609 26.849 199.328 26.0781C199.047 25.3073 198.828 24.4635 198.672 23.5469C198.516 22.6198 198.438 21.6146 198.438 20.5312C198.438 19.7604 198.578 18.974 198.859 18.1719C199.151 17.3594 199.547 16.5833 200.047 15.8438C200.547 15.0938 201.135 14.401 201.812 13.7656C202.49 13.1198 203.219 12.5677 204 12.1094C205.062 11.4635 206.12 11.0208 207.172 10.7812C208.234 10.5312 209.214 10.4062 210.109 10.4062C210.557 10.4062 211.026 10.4427 211.516 10.5156C212.005 10.5885 212.469 10.6823 212.906 10.7969C213.354 10.9115 213.76 11.0365 214.125 11.1719C214.5 11.3073 214.792 11.4375 215 11.5625C215.5 11.8646 216.01 12.2396 216.531 12.6875C217.052 13.1354 217.542 13.6198 218 14.1406C218.458 14.6615 218.87 15.1979 219.234 15.75C219.609 16.2917 219.901 16.8073 220.109 17.2969C220.464 18.1094 220.703 18.9219 220.828 19.7344C220.953 20.5469 221.016 21.3906 221.016 22.2656C221.016 23.2031 220.917 24.0833 220.719 24.9062C220.531 25.7188 220.255 26.4844 219.891 27.2031C219.526 27.9219 219.078 28.599 218.547 29.2344C218.026 29.8594 217.432 30.4583 216.766 31.0312C216.276 31.4375 215.776 31.7917 215.266 32.0938C214.755 32.3854 214.208 32.6302 213.625 32.8281C213.052 33.026 212.438 33.1719 211.781 33.2656C211.125 33.3594 210.406 33.4062 209.625 33.4062ZM202.516 22.1406C202.516 22.6406 202.542 23.151 202.594 23.6719C202.646 24.1823 202.729 24.6927 202.844 25.2031C202.958 25.7031 203.104 26.1875 203.281 26.6562C203.469 27.125 203.693 27.5625 203.953 27.9688C204.286 28.5208 204.656 29.0625 205.062 29.5938C205.479 30.1146 205.938 30.5885 206.438 31.0156C206.948 31.4323 207.505 31.7708 208.109 32.0312C208.724 32.2812 209.391 32.4062 210.109 32.4062C210.786 32.4062 211.443 32.2448 212.078 31.9219C212.714 31.5885 213.302 31.1562 213.844 30.625C214.385 30.0833 214.87 29.474 215.297 28.7969C215.734 28.1198 216.089 27.4323 216.359 26.7344C216.391 26.6302 216.453 26.4427 216.547 26.1719C216.651 25.8906 216.755 25.5521 216.859 25.1562C216.964 24.7604 217.052 24.3125 217.125 23.8125C217.208 23.3125 217.25 22.7812 217.25 22.2188C217.25 21.7188 217.208 21.1771 217.125 20.5938C217.052 20.0104 216.932 19.4115 216.766 18.7969C216.609 18.1719 216.411 17.5469 216.172 16.9219C215.932 16.2969 215.651 15.6979 215.328 15.125C215.047 14.6354 214.719 14.1562 214.344 13.6875C213.969 13.2083 213.542 12.7865 213.062 12.4219C212.594 12.0469 212.073 11.75 211.5 11.5312C210.927 11.3021 210.302 11.1875 209.625 11.1875C208.979 11.1875 208.365 11.3229 207.781 11.5938C207.198 11.8646 206.667 12.2031 206.188 12.6094C205.708 13.0052 205.286 13.4323 204.922 13.8906C204.568 14.3385 204.281 14.75 204.062 15.125C203.896 15.4167 203.719 15.7812 203.531 16.2188C203.354 16.6562 203.188 17.1667 203.031 17.75C202.885 18.3333 202.76 18.9948 202.656 19.7344C202.562 20.4635 202.516 21.2656 202.516 22.1406ZM223.156 32.7812C223.156 32.4583 223.385 32.2969 223.844 32.2969C224.167 32.2969 224.5 32.2708 224.844 32.2188C225.188 32.1562 225.51 32.0833 225.812 32C225.979 31.9583 226.125 31.8958 226.25 31.8125C226.375 31.7188 226.438 31.5573 226.438 31.3281V12.125C226.375 11.9792 226.255 11.8542 226.078 11.75C225.911 11.6458 225.714 11.5625 225.484 11.5C225.255 11.4375 225.01 11.3854 224.75 11.3438C224.5 11.3021 224.255 11.2656 224.016 11.2344C223.786 11.2031 223.573 11.1719 223.375 11.1406C223.188 11.099 223.047 11.0521 222.953 11C222.88 10.9792 222.844 10.9062 222.844 10.7812C222.844 10.6875 222.88 10.6354 222.953 10.625C222.995 10.6042 223.057 10.5833 223.141 10.5625C223.224 10.5417 223.385 10.5312 223.625 10.5312C223.708 10.5312 223.901 10.5417 224.203 10.5625C224.516 10.5729 224.854 10.5938 225.219 10.625C225.583 10.6458 225.927 10.6667 226.25 10.6875C226.583 10.6979 226.807 10.7031 226.922 10.7031H229.031C229.073 10.7031 229.172 10.6979 229.328 10.6875C229.495 10.6771 229.672 10.6719 229.859 10.6719C230.047 10.6615 230.214 10.651 230.359 10.6406C230.516 10.6302 230.604 10.625 230.625 10.625C230.979 10.5729 231.333 10.5417 231.688 10.5312C232.042 10.5208 232.401 10.5156 232.766 10.5156C233.401 10.5156 234.052 10.5417 234.719 10.5938C235.396 10.6354 236.031 10.7708 236.625 11C237.229 11.2292 237.776 11.5365 238.266 11.9219C238.755 12.2969 239.172 12.7292 239.516 13.2188C239.87 13.6979 240.141 14.224 240.328 14.7969C240.526 15.3698 240.625 15.9583 240.625 16.5625C240.625 17.625 240.432 18.5469 240.047 19.3281C239.672 20.099 239.062 20.7917 238.219 21.4062C237.698 21.7812 237.062 22.099 236.312 22.3594C235.573 22.6094 234.729 22.7344 233.781 22.7344C233.375 22.7344 232.974 22.7292 232.578 22.7188C232.182 22.6979 231.776 22.6667 231.359 22.625C231.307 22.625 231.245 22.6146 231.172 22.5938C231.099 22.5729 231.005 22.5625 230.891 22.5625H230.594C230.5 22.5625 230.448 22.5833 230.438 22.625C230.271 22.6771 230.13 22.7708 230.016 22.9062C229.901 23.0312 229.844 23.25 229.844 23.5625V26.5625C229.844 27.2708 229.812 28.0417 229.75 28.875C229.698 29.7083 229.672 30.5052 229.672 31.2656C229.672 31.4844 229.719 31.6406 229.812 31.7344C229.906 31.8177 230.042 31.8802 230.219 31.9219C230.688 32.0365 231.13 32.1198 231.547 32.1719C231.964 32.2135 232.396 32.2812 232.844 32.375C233 32.4271 233.094 32.4844 233.125 32.5469C233.167 32.599 233.188 32.6615 233.188 32.7344C233.188 32.7969 233.156 32.849 233.094 32.8906C233.042 32.9219 232.974 32.9531 232.891 32.9844C232.818 33.0052 232.74 33.0208 232.656 33.0312C232.583 33.0417 232.521 33.0469 232.469 33.0469C232.344 33.0469 232.188 33.0417 232 33.0312C231.823 33.0312 231.641 33.026 231.453 33.0156C231.276 33.0156 231.104 33.0104 230.938 33C230.781 33 230.656 33 230.562 33H225.844C225.448 33 225.068 33.0052 224.703 33.0156C224.349 33.0365 224.089 33.0469 223.922 33.0469H223.344C223.219 33.0365 223.156 32.9479 223.156 32.7812ZM230.141 22.0312C230.328 22.0833 230.51 22.1302 230.688 22.1719C230.875 22.2031 231.104 22.2188 231.375 22.2188C231.844 22.2188 232.318 22.1667 232.797 22.0625C233.276 21.9479 233.714 21.7812 234.109 21.5625C234.484 21.3646 234.849 21.1042 235.203 20.7812C235.568 20.4583 235.891 20.0833 236.172 19.6562C236.453 19.2188 236.677 18.7344 236.844 18.2031C237.021 17.6615 237.109 17.0729 237.109 16.4375C237.109 15.7708 237.036 15.1823 236.891 14.6719C236.745 14.151 236.526 13.6927 236.234 13.2969C235.953 12.901 235.594 12.5573 235.156 12.2656C234.729 11.9635 234.229 11.6927 233.656 11.4531C233.344 11.3177 233.016 11.224 232.672 11.1719C232.339 11.1094 231.99 11.0781 231.625 11.0781C231.292 11.0781 230.984 11.0938 230.703 11.125C230.432 11.1458 230.146 11.2135 229.844 11.3281V21.2656C229.844 21.4323 229.854 21.5885 229.875 21.7344C229.906 21.8802 229.995 21.9792 230.141 22.0312Z" fill="white"/>
</g>
<path d="M8.66602 18.8086C8.66602 18.5885 8.76758 18.4531 8.9707 18.4023C9.1569 18.3516 9.31771 18.3262 9.45312 18.3262C9.77474 18.3262 10.1979 18.3346 10.7227 18.3516C11.2643 18.3685 11.8314 18.3854 12.4238 18.4023C13.0163 18.4023 13.6087 18.4108 14.2012 18.4277C14.7936 18.4447 15.3184 18.4531 15.7754 18.4531C16.4186 18.4531 17.0365 18.4447 17.6289 18.4277C18.2383 18.4108 18.9069 18.377 19.6348 18.3262C20.3965 18.2923 21.1159 18.2331 21.793 18.1484C22.487 18.0638 23.1725 18.0215 23.8496 18.0215C23.9173 18.0215 24.0189 18.0299 24.1543 18.0469C24.2897 18.0469 24.4251 18.0638 24.5605 18.0977C24.696 18.1146 24.806 18.1569 24.8906 18.2246C24.9922 18.2923 25.043 18.3854 25.043 18.5039C25.043 18.7409 24.9076 18.9186 24.6367 19.0371C24.3659 19.1387 24.0273 19.2233 23.6211 19.291C23.2148 19.3587 22.7747 19.4349 22.3008 19.5195C21.8268 19.5872 21.3867 19.7057 20.9805 19.875C20.5742 20.0273 20.2357 20.2559 19.9648 20.5605C19.694 20.8652 19.5586 21.2799 19.5586 21.8047C19.5586 22.194 19.5671 22.6172 19.584 23.0742C19.6178 23.5143 19.7109 23.9121 19.8633 24.2676L27.4043 43.4121C27.6413 43.9707 27.819 44.25 27.9375 44.25C28.1237 44.25 28.3438 44.0046 28.5977 43.5137C28.6484 43.3952 28.7669 43.0736 28.9531 42.5488C29.1562 42.0072 29.4017 41.3385 29.6895 40.543C29.9941 39.7305 30.3242 38.8249 30.6797 37.8262C31.0521 36.8105 31.4245 35.7695 31.7969 34.7031C32.1862 33.6367 32.5671 32.5703 32.9395 31.5039C33.3118 30.4375 33.6504 29.4473 33.9551 28.5332C34.2767 27.6022 34.556 26.7897 34.793 26.0957C35.0299 25.3848 35.1908 24.86 35.2754 24.5215C35.36 24.0983 35.4023 23.6921 35.4023 23.3027C35.4023 22.998 35.377 22.7188 35.3262 22.4648C35.2923 22.194 35.2161 21.957 35.0977 21.7539C34.8776 21.3646 34.5475 21.026 34.1074 20.7383C33.6842 20.4336 33.2865 20.1882 32.9141 20.002C32.6263 19.8665 32.2878 19.7565 31.8984 19.6719C31.526 19.5703 31.1706 19.4603 30.832 19.3418C30.4935 19.2233 30.2057 19.0879 29.9688 18.9355C29.7318 18.7832 29.6133 18.5801 29.6133 18.3262C29.6133 18.1061 29.6895 17.9792 29.8418 17.9453C29.9941 17.9115 30.138 17.8945 30.2734 17.8945C30.849 17.8945 31.4922 17.9199 32.2031 17.9707C32.9141 18.0046 33.6589 18.0469 34.4375 18.0977C35.2161 18.1484 36.0117 18.1992 36.8242 18.25C37.6367 18.2839 38.4238 18.3008 39.1855 18.3008C39.6087 18.3008 39.9896 18.2839 40.3281 18.25C40.6836 18.1992 41.0137 18.1484 41.3184 18.0977C41.623 18.0469 41.9193 18.0046 42.207 17.9707C42.4948 17.9199 42.8079 17.8945 43.1465 17.8945C43.248 17.8945 43.3581 17.903 43.4766 17.9199C43.5951 17.9199 43.7135 17.9368 43.832 17.9707C43.9505 18.0046 44.0436 18.0553 44.1113 18.123C44.196 18.1908 44.2383 18.2923 44.2383 18.4277C44.2383 18.6986 44.1367 18.8594 43.9336 18.9102C43.612 18.9948 43.2904 19.0879 42.9688 19.1895C42.6471 19.291 42.3424 19.3926 42.0547 19.4941C41.7839 19.5957 41.5469 19.6973 41.3438 19.7988C41.1406 19.8835 41.0052 19.9512 40.9375 20.002C40.7513 20.0866 40.4889 20.2643 40.1504 20.5352C39.8288 20.806 39.5241 21.1445 39.2363 21.5508C39.0671 21.7878 38.8893 22.0755 38.7031 22.4141C38.5339 22.7526 38.3138 23.2181 38.043 23.8105C37.7721 24.3861 37.4421 25.1309 37.0527 26.0449C36.6803 26.959 36.2064 28.11 35.6309 29.498L26.3125 52.375C26.194 52.6458 26.084 52.8743 25.9824 53.0605C25.8809 53.2467 25.7539 53.3398 25.6016 53.3398C25.4154 53.3398 25.263 53.2383 25.1445 53.0352C25.026 52.832 24.8991 52.5527 24.7637 52.1973L14.5312 25.0039C14.362 24.5638 14.1758 24.0983 13.9727 23.6074C13.7695 23.0996 13.5326 22.6172 13.2617 22.1602C13.0078 21.7031 12.7201 21.2969 12.3984 20.9414C12.0768 20.569 11.7214 20.2982 11.332 20.1289C11.1966 20.112 10.9766 20.0697 10.6719 20.002C10.3841 19.9342 10.0879 19.8411 9.7832 19.7227C9.49544 19.6042 9.23307 19.4688 8.99609 19.3164C8.77604 19.1641 8.66602 18.9948 8.66602 18.8086ZM59.0918 39.4258C59.4642 39.4258 59.6504 39.265 59.6504 38.9434C59.6504 38.791 59.6419 38.6725 59.625 38.5879C59.5234 38.2663 59.3796 37.8008 59.1934 37.1914C59.0072 36.582 58.7956 35.8796 58.5586 35.084C58.3216 34.2884 58.0592 33.4421 57.7715 32.5449C57.5007 31.6309 57.2214 30.7168 56.9336 29.8027C56.6628 28.8887 56.3919 28.0085 56.1211 27.1621C55.8503 26.2988 55.6133 25.5202 55.4102 24.8262C55.3763 24.7923 55.3255 24.7331 55.2578 24.6484C55.207 24.5638 55.1224 24.5215 55.0039 24.5215C54.8516 24.5215 54.7331 24.6654 54.6484 24.9531C54.4961 25.3763 54.2845 25.9772 54.0137 26.7559C53.7598 27.5345 53.472 28.3978 53.1504 29.3457C52.8288 30.2936 52.4902 31.2754 52.1348 32.291C51.7962 33.3066 51.4746 34.2546 51.1699 35.1348C50.8652 35.998 50.6029 36.7513 50.3828 37.3945C50.1628 38.0208 50.0189 38.4355 49.9512 38.6387C49.9173 38.6895 49.9004 38.7572 49.9004 38.8418C49.9004 39.2311 50.1628 39.4258 50.6875 39.4258H59.0918ZM38.1699 53.3398C38.1699 53.0521 38.3223 52.8828 38.627 52.832C38.9147 52.7812 39.3548 52.7051 39.9473 52.6035C41.0475 52.3665 41.9616 51.8841 42.6895 51.1562C43.4173 50.4284 44.0267 49.599 44.5176 48.668C45.0085 47.7201 45.4147 46.7383 45.7363 45.7227C46.0749 44.707 46.3965 43.793 46.7012 42.9805L53.2012 25.1816C53.3535 24.7415 53.4889 24.4368 53.6074 24.2676C53.7428 24.0814 53.8529 23.929 53.9375 23.8105C54.0221 23.6751 54.0898 23.5228 54.1406 23.3535C54.1914 23.1842 54.2168 22.888 54.2168 22.4648C54.2168 22.2786 54.1914 22.1094 54.1406 21.957C54.0898 21.8047 54.0306 21.6523 53.9629 21.5C53.9121 21.3307 53.8613 21.153 53.8105 20.9668C53.7598 20.7637 53.7344 20.5182 53.7344 20.2305C54.1745 20.1797 54.5892 20.112 54.9785 20.0273C55.3848 19.9258 55.7572 19.7565 56.0957 19.5195C56.2819 19.3841 56.4427 19.2064 56.5781 18.9863C56.7135 18.7493 56.8574 18.5208 57.0098 18.3008C57.1621 18.0807 57.3398 17.8945 57.543 17.7422C57.7461 17.5729 58.0169 17.4883 58.3555 17.4883C58.3893 17.4883 58.4232 17.4967 58.457 17.5137C58.4909 17.5306 58.5247 17.5814 58.5586 17.666C58.5924 17.7507 58.694 18.0807 58.8633 18.6562C59.0495 19.2318 59.2865 20.002 59.5742 20.9668C59.8789 21.9147 60.2174 23.015 60.5898 24.2676C60.9792 25.5202 61.3854 26.8574 61.8086 28.2793C62.2487 29.6842 62.6973 31.1484 63.1543 32.6719C63.6283 34.1953 64.0938 35.7018 64.5508 37.1914C65.0078 38.6641 65.4395 40.0944 65.8457 41.4824C66.2689 42.8535 66.6582 44.1061 67.0137 45.2402C67.3691 46.3743 67.6738 47.3646 67.9277 48.2109C68.1816 49.0404 68.3678 49.6497 68.4863 50.0391C68.6725 50.5977 68.9688 51.0885 69.375 51.5117C69.7812 51.9349 70.2298 52.2227 70.7207 52.375C71.2116 52.5443 71.6517 52.6374 72.041 52.6543C72.4473 52.6712 72.7858 52.6882 73.0566 52.7051C73.3444 52.722 73.5645 52.7812 73.7168 52.8828C73.8691 52.9844 73.9453 53.196 73.9453 53.5176C73.9453 53.6191 73.9115 53.7038 73.8438 53.7715C73.776 53.8223 73.6914 53.8646 73.5898 53.8984C73.4883 53.9323 73.3783 53.9577 73.2598 53.9746C73.1582 53.9746 73.0736 53.9831 73.0059 54H70.7207C70.5853 54 70.4414 54 70.2891 54C70.1367 53.9831 69.8997 53.9746 69.5781 53.9746C69.2734 53.9577 68.8503 53.9492 68.3086 53.9492C67.7669 53.9323 67.0475 53.9238 66.1504 53.9238C65.2025 53.9238 64.2715 53.9408 63.3574 53.9746C62.4603 53.9915 61.5462 54.0169 60.6152 54.0508H59.3203C59.1849 54.0508 59.0326 54.0423 58.8633 54.0254C58.694 54.0254 58.5332 54.0085 58.3809 53.9746C58.2285 53.9408 58.1016 53.8815 58 53.7969C57.8984 53.7122 57.8477 53.5938 57.8477 53.4414C57.8477 53.306 57.9154 53.196 58.0508 53.1113C58.1862 53.0267 58.347 52.959 58.5332 52.9082C58.7194 52.8574 58.9141 52.8236 59.1172 52.8066C59.3203 52.7728 59.4896 52.7474 59.625 52.7305C60.2005 52.6458 60.7591 52.5527 61.3008 52.4512C61.8424 52.3327 62.3757 52.2227 62.9004 52.1211C63.2897 52.0026 63.4844 51.791 63.4844 51.4863C63.4844 51.4525 63.4844 51.4017 63.4844 51.334C63.4844 51.2493 63.4674 51.1732 63.4336 51.1055L60.666 42.0156C60.6322 41.8802 60.5391 41.7279 60.3867 41.5586C60.2513 41.3893 60.082 41.3047 59.8789 41.3047H49.5703C49.3333 41.3047 49.1725 41.347 49.0879 41.4316C49.0033 41.4993 48.9271 41.5755 48.8594 41.6602L47.5391 45.2148C47.319 45.7904 47.1667 46.3151 47.082 46.7891C46.9974 47.2461 46.9551 47.6862 46.9551 48.1094C46.9551 48.6172 47.0059 49.1758 47.1074 49.7852C47.1921 50.3945 47.3952 50.8685 47.7168 51.207C48.0384 51.5456 48.4108 51.7995 48.834 51.9688C49.2741 52.138 49.7396 52.2565 50.2305 52.3242C50.7214 52.375 51.1699 52.4258 51.5762 52.4766C51.9824 52.5273 52.3125 52.6035 52.5664 52.7051C52.8372 52.7897 52.9727 52.959 52.9727 53.2129C52.9727 53.3652 52.9219 53.526 52.8203 53.6953C52.7357 53.8646 52.5241 53.9661 52.1855 54H51.0938C50.0951 53.9661 49.1217 53.9323 48.1738 53.8984C47.2428 53.8477 46.2695 53.8223 45.2539 53.8223C44.1367 53.8223 43.1211 53.8561 42.207 53.9238C41.3099 53.9746 40.4043 54 39.4902 54H39.1602C38.5 54 38.1699 53.7799 38.1699 53.3398ZM80.7246 51.8926V34.0938C80.7246 33.569 80.7415 32.8496 80.7754 31.9355C80.8092 31.0046 80.8516 30.0059 80.9023 28.9395C80.9531 27.873 80.9954 26.7897 81.0293 25.6895C81.0632 24.5892 81.0801 23.599 81.0801 22.7188C81.0801 21.5339 81.0293 20.6706 80.9277 20.1289C80.8939 19.8073 80.7585 19.5534 80.5215 19.3672C80.3014 19.1641 80.0221 19.0117 79.6836 18.9102C79.362 18.7917 78.9896 18.7155 78.5664 18.6816C78.1602 18.6309 77.7624 18.5885 77.373 18.5547C77.0007 18.5039 76.6452 18.4616 76.3066 18.4277C75.985 18.377 75.7311 18.3008 75.5449 18.1992C75.3249 18.0807 75.2148 17.9368 75.2148 17.7676C75.2148 17.6322 75.2233 17.5391 75.2402 17.4883C75.2741 17.4375 75.3249 17.3952 75.3926 17.3613C75.5957 17.2936 75.7904 17.2513 75.9766 17.2344C76.1797 17.2005 76.3574 17.1836 76.5098 17.1836H77.4746C78.2363 17.1836 78.888 17.2005 79.4297 17.2344C79.9883 17.2513 80.5046 17.2852 80.9785 17.3359C81.4525 17.3698 81.918 17.4036 82.375 17.4375C82.832 17.4544 83.3483 17.4629 83.9238 17.4629C84.5501 17.4629 85.1257 17.429 85.6504 17.3613C86.1921 17.2936 86.6999 17.2174 87.1738 17.1328C87.6647 17.0482 88.1302 16.972 88.5703 16.9043C89.0273 16.8366 89.4844 16.8027 89.9414 16.8027H90.8555C91.0417 16.8027 91.2448 16.8197 91.4648 16.8535C91.6849 16.8874 91.7949 17.0143 91.7949 17.2344C91.7949 17.5221 91.6003 17.7253 91.2109 17.8438C90.9232 17.9284 90.5846 18.0046 90.1953 18.0723C89.8229 18.123 89.3997 18.2415 88.9258 18.4277C88.4857 18.5293 88.1217 18.6393 87.834 18.7578C87.5632 18.8763 87.36 18.9694 87.2246 19.0371C87.0384 19.1556 86.8691 19.3079 86.7168 19.4941C86.5814 19.6803 86.5137 19.9512 86.5137 20.3066V50.9277C86.5137 51.3001 86.6152 51.5879 86.8184 51.791C87.0215 51.9941 87.2754 52.1465 87.5801 52.248C87.9017 52.3496 88.2402 52.4089 88.5957 52.4258C88.9681 52.4427 89.3151 52.4512 89.6367 52.4512C90.0091 52.4512 90.5339 52.4342 91.2109 52.4004C91.888 52.3665 92.599 52.3158 93.3438 52.248C94.0885 52.1803 94.8079 52.0957 95.502 51.9941C96.2129 51.8757 96.7884 51.7402 97.2285 51.5879C97.821 51.3848 98.3626 51.1816 98.8535 50.9785C99.3613 50.7585 99.7845 50.4876 100.123 50.166C100.174 50.1322 100.258 50.0645 100.377 49.9629C100.495 49.8444 100.622 49.709 100.758 49.5566C100.91 49.3874 101.054 49.2096 101.189 49.0234C101.325 48.8372 101.443 48.651 101.545 48.4648C101.646 48.3294 101.731 48.2109 101.799 48.1094C101.883 48.0078 101.96 47.9232 102.027 47.8555C102.095 47.7708 102.18 47.627 102.281 47.4238C102.383 47.2207 102.493 46.9922 102.611 46.7383C102.747 46.4844 102.882 46.2305 103.018 45.9766C103.153 45.7057 103.288 45.4518 103.424 45.2148C103.542 45.0625 103.652 44.9355 103.754 44.834C103.872 44.7324 104.025 44.6816 104.211 44.6816C104.397 44.6816 104.499 44.7917 104.516 45.0117C104.549 45.2148 104.566 45.418 104.566 45.6211C104.566 46.0273 104.516 46.4421 104.414 46.8652C104.329 47.2715 104.228 47.6777 104.109 48.084C103.991 48.4902 103.864 48.8965 103.729 49.3027C103.593 49.709 103.492 50.1152 103.424 50.5215C103.339 50.9108 103.28 51.3171 103.246 51.7402C103.229 52.1465 103.187 52.5273 103.119 52.8828C103.068 53.2214 102.958 53.5007 102.789 53.7207C102.637 53.9408 102.383 54.0508 102.027 54.0508H84.6602C83.6107 54.0508 82.7305 54.0677 82.0195 54.1016C81.3255 54.1523 80.6908 54.2031 80.1152 54.2539C79.5397 54.3216 78.9642 54.3724 78.3887 54.4062C77.8301 54.457 77.1699 54.4824 76.4082 54.4824C76.1204 54.4824 75.875 54.457 75.6719 54.4062C75.4857 54.3555 75.3333 54.2201 75.2148 54C75.1979 53.9323 75.181 53.8815 75.1641 53.8477C75.1471 53.8138 75.1387 53.7038 75.1387 53.5176C75.1387 53.2975 75.2318 53.1452 75.418 53.0605C75.6211 52.959 75.7734 52.8913 75.875 52.8574C76.0612 52.8236 76.3405 52.8066 76.7129 52.8066C77.0853 52.7897 77.4238 52.7643 77.7285 52.7305C77.8809 52.7135 78.0755 52.6882 78.3125 52.6543C78.5495 52.6204 78.8034 52.5697 79.0742 52.502C79.362 52.4342 79.6497 52.3496 79.9375 52.248C80.2253 52.1465 80.4876 52.028 80.7246 51.8926ZM125.234 54.6602C122.763 54.6602 120.436 54.1777 118.252 53.2129C116.085 52.2311 114.096 50.7923 112.285 48.8965C111.507 48.1009 110.796 47.1953 110.152 46.1797C109.509 45.1471 108.959 44.0046 108.502 42.752C108.045 41.4993 107.689 40.1283 107.436 38.6387C107.182 37.1322 107.055 35.4987 107.055 33.7383C107.055 32.4857 107.283 31.2077 107.74 29.9043C108.214 28.584 108.857 27.3229 109.67 26.1211C110.482 24.9023 111.439 23.7767 112.539 22.7441C113.639 21.6947 114.824 20.7975 116.094 20.0527C117.82 19.0033 119.538 18.2839 121.248 17.8945C122.975 17.4883 124.566 17.2852 126.021 17.2852C126.749 17.2852 127.511 17.3444 128.307 17.4629C129.102 17.5814 129.855 17.7337 130.566 17.9199C131.294 18.1061 131.954 18.3092 132.547 18.5293C133.156 18.7493 133.63 18.9609 133.969 19.1641C134.781 19.6549 135.611 20.2643 136.457 20.9922C137.303 21.7201 138.099 22.5072 138.844 23.3535C139.589 24.1999 140.257 25.0716 140.85 25.9688C141.459 26.849 141.933 27.6868 142.271 28.4824C142.847 29.8027 143.236 31.123 143.439 32.4434C143.643 33.7637 143.744 35.1348 143.744 36.5566C143.744 38.0801 143.583 39.5104 143.262 40.8477C142.957 42.168 142.508 43.4121 141.916 44.5801C141.324 45.748 140.596 46.8483 139.732 47.8809C138.886 48.8965 137.921 49.8698 136.838 50.8008C136.042 51.4609 135.23 52.0365 134.4 52.5273C133.571 53.0013 132.682 53.3991 131.734 53.7207C130.803 54.0423 129.805 54.2793 128.738 54.4316C127.672 54.584 126.504 54.6602 125.234 54.6602ZM113.682 36.3535C113.682 37.166 113.724 37.9954 113.809 38.8418C113.893 39.6712 114.029 40.5007 114.215 41.3301C114.401 42.1426 114.638 42.9297 114.926 43.6914C115.23 44.4531 115.594 45.1641 116.018 45.8242C116.559 46.7214 117.16 47.6016 117.82 48.4648C118.497 49.3112 119.242 50.0814 120.055 50.7754C120.884 51.4525 121.79 52.0026 122.771 52.4258C123.77 52.832 124.854 53.0352 126.021 53.0352C127.122 53.0352 128.188 52.7728 129.221 52.248C130.253 51.7064 131.21 51.0039 132.09 50.1406C132.97 49.2604 133.757 48.2702 134.451 47.1699C135.162 46.0697 135.738 44.9525 136.178 43.8184C136.229 43.6491 136.33 43.3444 136.482 42.9043C136.652 42.4473 136.821 41.8971 136.99 41.2539C137.16 40.6107 137.303 39.8828 137.422 39.0703C137.557 38.2578 137.625 37.3945 137.625 36.4805C137.625 35.668 137.557 34.7878 137.422 33.8398C137.303 32.8919 137.109 31.9186 136.838 30.9199C136.584 29.9043 136.262 28.8887 135.873 27.873C135.484 26.8574 135.027 25.8841 134.502 24.9531C134.045 24.1576 133.512 23.3789 132.902 22.6172C132.293 21.8385 131.599 21.153 130.82 20.5605C130.059 19.9512 129.212 19.4688 128.281 19.1133C127.35 18.7409 126.335 18.5547 125.234 18.5547C124.185 18.5547 123.186 18.7747 122.238 19.2148C121.29 19.6549 120.427 20.2051 119.648 20.8652C118.87 21.5085 118.184 22.2025 117.592 22.9473C117.016 23.6751 116.551 24.3438 116.195 24.9531C115.924 25.4271 115.637 26.0195 115.332 26.7305C115.044 27.4414 114.773 28.2708 114.52 29.2188C114.283 30.1667 114.079 31.2415 113.91 32.4434C113.758 33.6283 113.682 34.9316 113.682 36.3535Z" fill="#070414"/>
<defs>
<clipPath id="clip0_1422_902">
<rect width="87" height="26" fill="white" transform="translate(155 10)"/>
</clipPath>
</defs>
</svg>
