<svg width="24" height="24" viewBox="0 0 24 24" fill="none" xmlns="http://www.w3.org/2000/svg">
<g id="icon / percent">
<path id="Icon" d="M7.45455 16.5455L16.5455 7.45455M8.02251 8.02267H8.70432M8.02251 8.70449H8.70432M15.2952 15.2954H15.9771M15.2952 15.9772H15.9771M22 12C22 17.5228 17.5228 22 12 22C6.47715 22 2 17.5228 2 12C2 6.47715 6.47715 2 12 2C17.5228 2 22 6.47715 22 12ZM9.27273 8.36364C9.27273 8.86571 8.86571 9.27273 8.36364 9.27273C7.86156 9.27273 7.45455 8.86571 7.45455 8.36364C7.45455 7.86156 7.86156 7.45455 8.36364 7.45455C8.86571 7.45455 9.27273 7.86156 9.27273 8.36364ZM16.5455 15.6364C16.5455 16.1384 16.1384 16.5455 15.6364 16.5455C15.1343 16.5455 14.7273 16.1384 14.7273 15.6364C14.7273 15.1343 15.1343 14.7273 15.6364 14.7273C16.1384 14.7273 16.5455 15.1343 16.5455 15.6364Z" stroke-width="2" stroke-linecap="round"/>
</g>
</svg>
